<svg width="300" height="251" viewBox="0 0 300 251" fill="none" xmlns="http://www.w3.org/2000/svg">
<path d="M0 125.5C0 98.5297 10.2499 73.5543 27.6806 53.1316H102.632V64.8351C78.8668 77.7476 63.1579 100.095 63.1579 125.5C63.1579 165.468 102.038 197.868 150 197.868V250.5C67.1573 250.5 0 194.536 0 125.5Z" fill="#ECECEC"/>
<path d="M272.319 197.868C289.75 177.446 300 152.47 300 125.5C300 56.4644 232.843 0.5 150 0.5V53.1316C197.962 53.1316 236.842 85.532 236.842 125.5C236.842 150.905 221.133 173.252 197.368 186.165V197.868H272.319Z" fill="#ECECEC"/>
</svg>
