<svg width="16" height="16" viewBox="0 0 16 16" fill="none" xmlns="http://www.w3.org/2000/svg">
<path d="M6.66732 14.6666H9.33398C11.8481 14.6666 13.1053 14.6666 13.8863 13.8855C14.6673 13.1045 14.6673 11.8474 14.6673 9.33326C14.6673 6.81913 14.6673 5.56203 13.8863 4.78098C13.6445 4.53925 13.3569 4.37233 13.0004 4.25707C13.0007 4.37009 13.0007 4.48567 13.0007 4.60324V6.04198C13.0007 6.06155 13.0009 6.08287 13.0011 6.10575C13.003 6.33272 13.0063 6.71313 12.8433 7.06113C12.6803 7.4092 12.386 7.6502 12.2103 7.794C12.1928 7.80833 12.176 7.82206 12.1611 7.83446L11.1568 8.67146C10.5829 9.14966 10.0834 9.566 9.63432 9.8548C9.15032 10.1661 8.62672 10.3964 8.00065 10.3964C7.37458 10.3964 6.85105 10.1661 6.36698 9.8548C5.91791 9.566 5.41839 9.14966 4.84456 8.67146L3.84023 7.83446C3.82519 7.822 3.8087 7.80846 3.79099 7.794C3.61536 7.6502 3.32102 7.4092 3.15801 7.06113C2.995 6.71313 2.9983 6.33272 3.00028 6.10575C3.00047 6.08288 3.00066 6.06154 3.00066 6.04198V4.60324C3.00064 4.48552 3.00064 4.36998 3.00092 4.25684C2.6445 4.3721 2.35693 4.53908 2.11503 4.78098C1.33398 5.56203 1.33398 6.81913 1.33398 9.33326C1.33398 11.8474 1.33398 13.1045 2.11503 13.8855C2.89608 14.6666 4.15316 14.6666 6.66732 14.6666Z" fill="url(#paint0_linear_310_26146)"/>
<path fill-rule="evenodd" clip-rule="evenodd" d="M4.4803 7.06614L5.43981 7.86574C6.66423 8.88607 7.27642 9.39627 8.00056 9.39627C8.72462 9.39627 9.33689 8.88607 10.5613 7.86574L11.5208 7.06614C11.7567 6.86954 11.8747 6.77127 11.9376 6.63686C12.0006 6.50248 12.0006 6.34893 12.0006 6.04184V4.66634C12.0006 4.45259 12.0006 4.25337 11.9993 4.06747C11.9915 2.88674 11.9342 2.24291 11.5124 1.82116C11.0242 1.33301 10.2386 1.33301 8.66722 1.33301H7.33389C5.76253 1.33301 4.97685 1.33301 4.4887 1.82116C4.06695 2.24291 4.00835 2.88674 4.00055 4.06747C3.99931 4.25337 4.00055 4.45259 4.00055 4.66634V6.04184C4.00055 6.34893 4.00055 6.50248 4.06349 6.63686C4.12643 6.77127 4.24438 6.86954 4.4803 7.06614ZM6.16715 3.99967C6.16715 3.72353 6.39101 3.49967 6.66715 3.49967H9.33382C9.60995 3.49967 9.83382 3.72353 9.83382 3.99967C9.83382 4.27581 9.60995 4.49967 9.33382 4.49967H6.66715C6.39101 4.49967 6.16715 4.27581 6.16715 3.99967ZM6.83382 5.99967C6.83382 5.72353 7.05769 5.49967 7.33382 5.49967H8.66716C8.94329 5.49967 9.16716 5.72353 9.16716 5.99967C9.16716 6.27581 8.94329 6.49967 8.66716 6.49967H7.33382C7.05769 6.49967 6.83382 6.27581 6.83382 5.99967Z" fill="url(#paint1_linear_310_26146)"/>
<defs>
<linearGradient id="paint0_linear_310_26146" x1="8.00065" y1="4.25684" x2="8.00065" y2="14.6666" gradientUnits="userSpaceOnUse">
<stop stop-color="white"/>
<stop offset="0.43" stop-color="#60D5FF"/>
</linearGradient>
<linearGradient id="paint1_linear_310_26146" x1="8.00028" y1="1.33301" x2="8.00028" y2="9.39627" gradientUnits="userSpaceOnUse">
<stop stop-color="white"/>
<stop offset="0.43" stop-color="#60D5FF"/>
</linearGradient>
</defs>
</svg>
