<svg width="16" height="16" viewBox="0 0 16 16" fill="none" xmlns="http://www.w3.org/2000/svg">
<path d="M14.667 5.66634C14.667 3.27311 12.7269 1.33301 10.3337 1.33301C8.94508 1.33301 7.70908 1.98787 6.91602 3.00448C10.2984 3.13525 13.0003 5.91859 13.0003 9.33301C13.0003 9.40654 12.9991 9.47981 12.9966 9.55274L13.2181 9.61201C13.8623 9.78434 14.4517 9.19501 14.2793 8.55081L14.1944 8.23341C14.1258 7.97707 14.1671 7.70621 14.2773 7.46481C14.5275 6.91701 14.667 6.30795 14.667 5.66634Z" fill="url(#paint0_linear_310_26156)"/>
<path fill-rule="evenodd" clip-rule="evenodd" d="M12.0007 9.33333C12.0007 12.2789 9.61285 14.6667 6.66732 14.6667C5.84364 14.6667 5.06358 14.4799 4.36716 14.1465C4.12779 14.0319 3.8566 13.9917 3.60024 14.0603L2.78288 14.279C2.13866 14.4513 1.54928 13.862 1.72166 13.2178L1.94035 12.4004C2.00895 12.1441 1.96871 11.8729 1.85412 11.6335C1.5207 10.9371 1.33398 10.157 1.33398 9.33333C1.33398 6.38781 3.7218 4 6.66732 4C9.61285 4 12.0007 6.38781 12.0007 9.33333ZM4.33398 10C4.70217 10 5.00065 9.70153 5.00065 9.33333C5.00065 8.96513 4.70217 8.66667 4.33398 8.66667C3.9658 8.66667 3.66732 8.96513 3.66732 9.33333C3.66732 9.70153 3.9658 10 4.33398 10ZM6.66732 10C7.03552 10 7.33398 9.70153 7.33398 9.33333C7.33398 8.96513 7.03552 8.66667 6.66732 8.66667C6.29913 8.66667 6.00065 8.96513 6.00065 9.33333C6.00065 9.70153 6.29913 10 6.66732 10ZM9.00065 10C9.36885 10 9.66732 9.70153 9.66732 9.33333C9.66732 8.96513 9.36885 8.66667 9.00065 8.66667C8.63245 8.66667 8.33398 8.96513 8.33398 9.33333C8.33398 9.70153 8.63245 10 9.00065 10Z" fill="url(#paint1_linear_310_26156)"/>
<defs>
<linearGradient id="paint0_linear_310_26156" x1="10.7915" y1="1.33301" x2="10.7915" y2="9.64237" gradientUnits="userSpaceOnUse">
<stop stop-color="white"/>
<stop offset="0.4833" stop-color="#FF60DA"/>
</linearGradient>
<linearGradient id="paint1_linear_310_26156" x1="6.66732" y1="4" x2="6.66732" y2="14.6667" gradientUnits="userSpaceOnUse">
<stop stop-color="white"/>
<stop offset="0.4833" stop-color="#FF60DA"/>
</linearGradient>
</defs>
</svg>
