<svg width="16" height="16" viewBox="0 0 16 16" fill="none" xmlns="http://www.w3.org/2000/svg">
<path d="M3.33398 3.99967C3.33398 4.34987 3.40296 4.69663 3.53697 5.02016C3.67098 5.3437 3.86741 5.63767 4.11503 5.88529C4.36266 6.13292 4.65663 6.32934 4.98016 6.46335C5.3037 6.59737 5.65046 6.66634 6.00065 6.66634C6.35084 6.66634 6.69761 6.59737 7.02114 6.46335C7.34468 6.32934 7.63865 6.13292 7.88627 5.88529C8.13389 5.63767 8.33032 5.3437 8.46433 5.02016C8.59834 4.69663 8.66732 4.34987 8.66732 3.99967C8.66732 3.29243 8.38637 2.61415 7.88627 2.11406C7.38617 1.61396 6.70789 1.33301 6.00065 1.33301C5.29341 1.33301 4.61513 1.61396 4.11503 2.11406C3.61494 2.61415 3.33398 3.29243 3.33398 3.99967Z" fill="url(#paint0_linear_310_26162)"/>
<path d="M1.33398 11.3337C1.33398 11.6838 1.45469 12.0306 1.68921 12.3541C1.92374 12.6777 2.26748 12.9717 2.70082 13.2193C3.13416 13.4669 3.64861 13.6633 4.2148 13.7973C4.78098 13.9314 5.38782 14.0003 6.00065 14.0003C6.61349 14.0003 7.22032 13.9314 7.78651 13.7973C8.35269 13.6633 8.86714 13.4669 9.30048 13.2193C9.73382 12.9717 10.0776 12.6777 10.3121 12.3541C10.5466 12.0306 10.6673 11.6838 10.6673 11.3337C10.6673 10.9835 10.5466 10.6367 10.3121 10.3132C10.0776 9.98963 9.73382 9.69566 9.30048 9.44804C8.86714 9.20042 8.35269 9.00399 7.78651 8.86998C7.22032 8.73597 6.61349 8.66699 6.00065 8.66699C5.38782 8.66699 4.78098 8.73597 4.2148 8.86998C3.64861 9.00399 3.13416 9.20042 2.70082 9.44804C2.26748 9.69566 1.92374 9.98963 1.68921 10.3132C1.45469 10.6367 1.33398 10.9835 1.33398 11.3337Z" fill="url(#paint1_linear_310_26162)"/>
<path d="M14 11.334C14 12.4386 12.643 13.334 10.9861 13.334C11.4742 12.8004 11.8099 12.1307 11.8099 11.3349C11.8099 10.5382 11.4734 9.86785 10.9844 9.33398C12.6412 9.33398 14 10.2294 14 11.334Z" fill="url(#paint2_linear_310_26162)"/>
<path d="M12.0001 4.00098C12.0001 5.10554 11.1047 6.00098 10.0001 6.00098C9.75919 6.00098 9.52832 5.9584 9.31445 5.88036C9.62985 5.32563 9.80999 4.68397 9.80999 4.00023C9.80999 3.317 9.63012 2.67578 9.31512 2.12133C9.52879 2.04346 9.75945 2.00098 10.0001 2.00098C11.1047 2.00098 12.0001 2.8964 12.0001 4.00098Z" fill="url(#paint3_linear_310_26162)"/>
<defs>
<linearGradient id="paint0_linear_310_26162" x1="6.00065" y1="1.33301" x2="6.00065" y2="6.66634" gradientUnits="userSpaceOnUse">
<stop stop-color="white"/>
<stop offset="0.43" stop-color="#60FFB3"/>
</linearGradient>
<linearGradient id="paint1_linear_310_26162" x1="6.00065" y1="8.66699" x2="6.00065" y2="14.0003" gradientUnits="userSpaceOnUse">
<stop stop-color="white"/>
<stop offset="0.43" stop-color="#60FFB3"/>
</linearGradient>
<linearGradient id="paint2_linear_310_26162" x1="12.4922" y1="9.33398" x2="12.4922" y2="13.334" gradientUnits="userSpaceOnUse">
<stop stop-color="white"/>
<stop offset="0.43" stop-color="#60FFB3"/>
</linearGradient>
<linearGradient id="paint3_linear_310_26162" x1="10.6573" y1="2.00098" x2="10.6573" y2="6.00098" gradientUnits="userSpaceOnUse">
<stop stop-color="white"/>
<stop offset="0.43" stop-color="#60FFB3"/>
</linearGradient>
</defs>
</svg>
