<svg width="16" height="16" viewBox="0 0 16 16" fill="none" xmlns="http://www.w3.org/2000/svg">
<path d="M5.33398 3.99967C5.33398 4.70692 5.61494 5.3852 6.11503 5.88529C6.61513 6.38539 7.29341 6.66634 8.00065 6.66634C8.70789 6.66634 9.38617 6.38539 9.88627 5.88529C10.3864 5.3852 10.6673 4.70692 10.6673 3.99967C10.6673 3.29243 10.3864 2.61415 9.88627 2.11406C9.38617 1.61396 8.70789 1.33301 8.00065 1.33301C7.29341 1.33301 6.61513 1.61396 6.11503 2.11406C5.61494 2.61415 5.33398 3.29243 5.33398 3.99967Z" fill="#EF4444"/>
<path fill-rule="evenodd" clip-rule="evenodd" d="M9.00775 14.3249C9.34942 14.6667 9.89942 14.6667 10.9993 14.6667C12.0993 14.6667 12.6493 14.6667 12.9909 14.3249C13.3327 13.9833 13.3327 13.4333 13.3327 12.3333C13.3327 11.2334 13.3327 10.6834 12.9909 10.3417C12.6493 10 12.0993 10 10.9993 10C9.89942 10 9.34942 10 9.00775 10.3417C8.66602 10.6834 8.66602 11.2334 8.66602 12.3333C8.66602 13.4333 8.66602 13.9833 9.00775 14.3249ZM10.6105 11.9445H9.96228C9.74755 11.9445 9.57342 12.1185 9.57342 12.3333C9.57342 12.5481 9.74755 12.7222 9.96228 12.7222H12.0364C12.2511 12.7222 12.4253 12.5481 12.4253 12.3333C12.4253 12.1185 12.2511 11.9445 12.0364 11.9445H10.6105Z" fill="#EF4444"/>
<path d="M10.2771 9.00526C9.60372 8.78979 8.82732 8.66699 8.00065 8.66699C5.42332 8.66699 3.33398 9.86092 3.33398 11.3337C3.33398 12.7607 5.29561 13.9259 7.76205 13.9969C7.74398 13.9127 7.72998 13.8291 7.71898 13.7471C7.66718 13.3619 7.66725 12.8913 7.66732 12.391V12.2763C7.66725 11.776 7.66718 11.3054 7.71898 10.9203C7.77658 10.4917 7.91432 10.0225 8.30192 9.63492C8.68958 9.24732 9.15865 9.10959 9.58725 9.05193C9.79525 9.02399 10.0281 9.01113 10.2771 9.00526Z" fill="#EF4444"/>
</svg>
